<svg width="538" height="540" viewBox="0 0 538 540" fill="none" xmlns="http://www.w3.org/2000/svg">
<g style="">
<path d="M272.812 539.363C257.56 539.017 234.6 537.212 227.344 535.789C223.734 535.081 215.719 533.567 209.531 532.423C192.533 529.283 162.665 519.021 148.959 511.612C135.503 504.339 124.914 498.237 123.281 496.816C122.25 495.918 117.231 492.365 112.127 488.92C107.024 485.475 100.978 480.899 98.6923 478.75C96.4065 476.602 93.6212 474.338 92.5026 473.72C88.3135 471.406 61.875 443.047 61.875 440.868C61.875 440.403 59.9461 438.01 57.5885 435.549C55.2309 433.089 52.5942 429.893 51.7291 428.448C50.864 427.004 48.0469 422.783 45.4688 419.069C42.8906 415.355 40.3594 411.621 39.8438 410.772C39.3281 409.922 38.2192 408.17 37.3795 406.879C33.3701 400.713 21.5093 375.951 19.6401 369.844C19.0089 367.781 17.7114 364.406 16.7569 362.344C12.1359 352.359 7.19794 332.171 3.80093 309.375C1.54001 294.203 0.94726 286.877 0.500322 268.581C0.145884 254.071 1.18836 242.652 5.46305 214.219C6.61599 206.55 10.8908 191.056 13.7399 184.219C15.0292 181.125 16.4532 177.109 16.9046 175.294C18.7362 167.927 34.4238 135.737 42.4766 122.82C56.4973 100.332 79.2042 75.145 100.987 57.919C110.007 50.7856 126.329 39.3392 132.566 35.7727C146.542 27.7807 152.95 24.8983 169.688 19.076C172.008 18.2689 174.328 17.2918 174.844 16.9049C176.445 15.7028 205.483 6.46737 210.683 5.50607C217.104 4.31906 235.179 1.9763 247.031 0.794824C263.098 -0.806741 300.863 1.06699 317.344 4.28343C338.057 8.32573 360.683 15.1633 374.831 21.6561C378.09 23.1515 380.957 24.375 381.203 24.375C382.249 24.375 395.826 31.3799 403.82 36.0441C411.71 40.6475 424.106 49.0955 433.5 56.2717C439.029 60.4946 456.562 76.1848 456.562 76.9088C456.562 77.2582 460.465 81.7502 465.234 86.8911C470.004 92.0319 475.702 98.526 477.898 101.322C480.093 104.118 483.936 108.954 486.438 112.067C491.355 118.184 495.973 125.991 505.626 144.503C511.16 155.113 515.497 166.144 521.427 184.687C522.499 188.039 523.734 191.625 524.173 192.656C525.01 194.626 529.35 213.869 530.675 221.482C531.1 223.93 531.667 226.286 531.935 226.719C534.329 230.592 537.487 273.942 536.283 286.406C531.811 332.706 517.503 377.28 496.167 411.375C491.34 419.09 480.186 434.774 479.012 435.5C478.482 435.827 476.999 437.759 475.715 439.793C474.431 441.826 465.863 451.01 456.673 460.202C441.409 475.47 428.361 486.697 418.594 492.968C408.794 499.26 395.768 506.914 392.812 508.119C391.008 508.854 386.697 511.055 383.232 513.009C379.767 514.963 376.392 516.565 375.732 516.568C375.072 516.571 373.266 517.251 371.719 518.077C366.122 521.069 349.561 526.793 335.943 530.443C319.002 534.984 319.085 534.968 300.378 537.206C292.078 538.199 284.695 539.141 283.972 539.299C283.248 539.457 278.227 539.486 272.812 539.363ZM282.656 524.042C311.889 521.926 337.957 516.252 362.543 506.654C376.559 501.183 388.057 495.119 408.248 482.553C409.261 481.922 412.378 479.719 415.175 477.656C417.971 475.594 422.081 472.641 424.308 471.094C439.356 460.641 451.23 448.313 471.383 422.224C477.986 413.675 490.193 393.169 496.983 379.219C504.26 364.268 511.341 342.496 515.249 323.052C519.888 299.976 520.641 292.524 520.708 269.062C520.777 245.128 519.387 234.214 512.412 203.906C508.254 185.835 493.312 150.778 482.246 133.125C469.825 113.312 462.671 104.441 444.423 86.2236C429.513 71.3391 420.006 63.9123 397.766 49.7766C385.078 41.7119 357.211 29.0706 340.781 23.9267C328.851 20.1914 316.519 17.6484 314.357 18.4778C313.641 18.7526 312.333 18.3525 311.449 17.5888C306.813 13.579 257.436 12.1139 235.781 15.3436C211.577 18.9535 204.306 20.7267 179.106 29.1651C169.38 32.4218 147.024 43.4947 137.786 49.6306C134.558 51.7751 130.606 54.1945 129.005 55.0071C120.766 59.1885 95.2987 80.3965 83.7182 92.7202C77.8481 98.9671 67.7191 111.316 62.106 119.068C57.7831 125.039 50.625 135.866 50.625 136.434C50.625 136.697 49.6076 138.524 48.3641 140.494C45.8462 144.482 35.1937 165.447 31.6248 173.437C29.1345 179.013 21.0415 204.941 20.3587 209.531C20.1286 211.078 19.0853 216.352 18.0402 221.25C11.1683 253.46 11.8336 294.763 19.7542 327.656C23.0666 341.412 31.4592 366.405 36.2818 376.875C39.4345 383.719 45.5957 396.185 46.9111 398.381C50.9233 405.077 66.1399 427.42 68.3393 429.844C69.7431 431.391 71.9819 434.133 73.3143 435.938C76.4746 440.218 96.6982 460.623 102.685 465.572C125.946 484.801 145.369 496.369 172.031 506.876C192.116 514.79 207.74 519.262 222.656 521.365C249.98 525.218 260.15 525.671 282.656 524.042ZM248.906 519.687C222.36 518.408 198.212 513.008 173.55 502.836C158.704 496.713 135.461 484.863 128.906 480.077C99.1857 458.372 84.6335 444.146 64.0959 416.719C53.6679 402.792 39.4403 376.127 33.4493 359.28C30.4294 350.788 23.302 323.515 22.1224 315.938C21.8414 314.133 20.7165 306.961 19.6226 300C17.8627 288.801 17.6957 284.86 18.1723 265.781C18.4686 253.922 18.9528 241.687 19.2482 238.594C20.2835 227.755 27.4636 196.37 30.4012 189.844C31.0974 188.297 32.8003 183.656 34.1853 179.531C39.7178 163.054 50.6071 142.403 61.3747 127.969C64.0671 124.359 67.9953 118.875 70.1039 115.781C72.2125 112.687 77.3129 106.489 81.4382 102.006C89.3461 93.4135 110.04 73.8517 111.884 73.2255C112.481 73.0229 114.714 71.3354 116.848 69.4755C118.982 67.6155 121.793 65.3633 123.095 64.4706C124.397 63.5779 128.769 60.5857 132.809 57.8212C139.236 53.4248 159.893 41.25 160.926 41.25C161.134 41.25 164.35 39.813 168.074 38.0567C178.63 33.0774 206.305 25.0022 223.326 21.9348C253.972 16.4117 285.709 16.3004 313.886 21.6173C323.189 23.3727 337.93 27.1937 342.388 29.0055C343.567 29.4844 349.151 31.637 354.797 33.7891C370.542 39.7905 383.358 46.3198 403.09 58.3918C424.541 71.5161 448.854 93.9684 464.728 115.312C469.138 121.242 473.956 127.651 475.435 129.554C476.915 131.458 478.125 133.279 478.125 133.601C478.125 133.924 479.132 135.531 480.363 137.172C488.223 147.652 501.539 179.079 506.741 199.425C514.282 228.919 516.896 248.136 516.404 270.469C515.948 291.144 514.344 288.044 513.618 265.086C512.886 241.92 511.528 231.769 506.123 209.062C498.726 177.986 485.089 147.715 468.348 125.208C465.642 121.57 462.09 116.613 460.454 114.191C452.803 102.867 424.894 76.7059 407.257 64.3263C390.274 52.4064 362.608 38.8129 341.131 31.8364C329.923 28.1957 307.804 23.1787 298.125 22.0819C295.289 21.7605 289.325 21.0987 284.872 20.6112C273.257 19.3397 244.419 20.9596 228.281 23.79C203.393 28.1553 184.033 33.8369 165.492 42.2172C139.476 53.9759 114.887 71.6958 90.7312 96.0937C72.5684 114.438 56.9653 136.543 45.0707 160.781C38.0781 175.03 30.0899 196.154 28.2305 205.312C27.7594 207.633 26.4977 213.75 25.4268 218.906C14.3867 272.061 22.181 333.024 46.3432 382.5C52.5808 395.273 64.5908 414.631 71.1394 422.469C72.4893 424.084 74.6317 426.826 75.9003 428.562C79.5877 433.608 105.783 459.449 112.969 465.129C139.715 486.27 172.997 502.718 203.906 510.072C221.625 514.287 222.373 514.423 237.221 516.147C247.871 517.383 255.51 517.608 272.812 517.196C303.82 516.458 320.695 513.604 346.303 504.768C382.229 492.371 416.146 471.967 440.496 448.101C472.219 417.011 496.06 374.785 506.118 331.875C509.348 318.097 511.586 306.821 512.26 300.938C513.508 290.023 513.927 287.812 514.745 287.812C517.011 287.812 513.513 314.147 508.643 333.75C502.643 357.899 486.064 394.917 474.142 410.784C472.465 413.017 468.798 418.219 465.994 422.344C463.19 426.469 458.686 432.164 455.983 435C453.281 437.836 449.849 441.703 448.356 443.594C446.862 445.485 444.196 448.208 442.43 449.646C440.664 451.083 435.844 455.254 431.719 458.915C418.706 470.462 407.802 478.112 391.082 487.427C345.438 512.852 303.685 522.326 248.906 519.687ZM252.144 512.548C246.813 508.347 246.017 501.963 250.293 497.688C252.72 495.261 253.658 494.933 257.464 495.182C262.927 495.54 265.739 498.709 265.739 504.511C265.739 507.62 265.182 508.815 262.698 511.033C259.428 513.955 254.777 514.623 252.144 512.548ZM262.671 506.719C263.457 504.994 263.464 503.773 262.7 502.096C261.768 500.051 261.416 499.931 259.276 500.924C257.964 501.533 257.03 502.453 257.2 502.969C257.369 503.484 256.871 504.376 256.092 504.949C254.893 505.833 255.095 506.212 257.416 507.428C261.199 509.41 261.46 509.375 262.671 506.719ZM272.49 511.751C269.575 510.056 267.863 504.73 269.064 501.09C272.263 491.395 286.875 493.918 286.875 504.166C286.875 509.53 283.579 512.822 278.248 512.784C276.032 512.768 273.441 512.303 272.49 511.751ZM283.874 505.257C284.074 502.874 283.622 501.455 282.274 500.235C280.532 498.658 280.283 498.646 278.856 500.072C277.985 500.944 277.574 502.279 277.909 503.152C278.235 504 277.959 505.044 277.297 505.472C276.421 506.039 276.667 506.407 278.203 506.828C279.363 507.146 280.312 507.81 280.312 508.303C280.312 508.796 281.051 509.06 281.953 508.889C283.079 508.676 283.682 507.536 283.874 505.257ZM231.852 510.928C227.084 509.008 225.332 500.525 228.832 496.308C235.17 488.671 246.941 493.661 245.181 503.238C243.915 510.121 238.131 513.458 231.852 510.928ZM239.815 507.422C242.681 504.943 243.128 502.159 241.067 499.614C239.59 497.79 239.031 497.609 237.866 498.576C236.015 500.112 235.212 505.312 236.826 505.312C239.059 505.312 239.187 507.202 237.013 508.073C235.566 508.654 235.355 508.963 236.381 509.003C237.226 509.036 238.771 508.324 239.815 507.422ZM293.075 509.03C290.294 506.588 289.688 505.415 289.688 502.475C289.688 497.881 293.272 493.417 297.614 492.602C301.487 491.876 304.231 493.269 306.609 497.169C310.574 503.672 307.669 510.267 300.34 511.403C296.891 511.938 296.088 511.675 293.075 509.03ZM305.17 505.29C305.497 504.761 305.488 503.074 305.151 501.54C304.646 499.238 304.069 498.75 301.856 498.75C298.809 498.75 297.4 500.146 299.597 500.989C300.4 501.297 300.982 502.291 300.89 503.197C300.797 504.103 300.77 505.16 300.83 505.547C300.991 506.601 304.488 506.394 305.17 505.29ZM213.469 507.861C208.645 506.667 206.795 503.695 207.588 498.41C208.326 493.486 211.224 490.452 215.916 489.691C218.805 489.222 219.697 489.553 222.144 492C225.669 495.525 225.934 499.916 222.891 504.377C220.294 508.183 218.077 509.002 213.469 507.861ZM220.756 502.199C222.132 499.644 222.231 498.708 221.307 496.982C220.366 495.223 219.947 495.074 218.743 496.073C215.596 498.685 214.98 505.312 217.884 505.312C218.542 505.312 219.834 503.911 220.756 502.199ZM313.37 506.691C310.34 504.569 309.097 499.149 310.813 495.535C312.443 492.099 314.513 490.665 319.076 489.809C321.996 489.261 322.815 489.546 325.216 491.947C332.264 498.995 328.433 508.125 318.429 508.125C316.772 508.125 314.496 507.48 313.37 506.691ZM324.08 502.337C326.892 499.695 326.932 495.584 324.166 493.647C321.152 491.535 318.474 491.717 319.194 493.984C319.507 494.971 319.325 496.051 318.788 496.383C317.239 497.34 317.627 498.496 320.391 501.15L322.969 503.626L319.922 503.225C318.246 503.005 316.875 503.173 316.875 503.6C316.875 505.196 321.992 504.299 324.08 502.337ZM193.594 502.759C190.192 501.923 189.375 500.502 189.375 495.426C189.375 491.127 189.764 490.068 192.26 487.572C195.449 484.382 196.184 484.217 200.505 485.724C204.121 486.984 205.312 489.017 205.312 493.929C205.312 496.584 204.609 498.505 202.885 500.553C200.485 503.406 198.318 503.92 193.594 502.759ZM201.565 498.278C203.027 496.517 203.084 492.397 201.667 490.979C199.856 489.169 195.538 494.218 196.3 497.255C196.989 499.998 199.7 500.526 201.565 498.278ZM332.74 499.76C328.175 495.195 329.14 488.025 334.707 485.146C338.288 483.294 341.556 484.135 344.534 487.674C352.027 496.579 340.93 507.949 332.74 499.76ZM343.811 497.205C345.485 494.916 345.291 492.75 343.182 490.182L341.364 487.969L339.224 490.078C337.35 491.925 337.291 492.188 338.753 492.188C339.699 492.188 340.155 492.622 339.804 493.189C339.464 493.74 338.59 493.962 337.862 493.683C336.86 493.298 336.68 493.736 337.121 495.494C337.491 496.969 337.305 497.812 336.609 497.812C336.007 497.812 335.762 498.213 336.064 498.702C336.922 500.091 342.487 499.015 343.811 497.205ZM338.906 487.5C339.225 486.984 338.828 486.562 338.024 486.562C337.22 486.562 336.562 486.984 336.562 487.5C336.562 488.016 336.959 488.438 337.445 488.438C337.93 488.438 338.588 488.016 338.906 487.5ZM175.157 495.914C171.143 493.794 169.907 490.172 171.524 485.273C173.626 478.903 180.206 476.274 184.869 479.941C189.712 483.751 189.064 494.031 183.802 496.847C181.234 498.222 179.086 497.99 175.157 495.914ZM184.5 492C185.908 490.592 185.978 485.016 184.598 484.164C182.81 483.059 179.19 485.67 179.484 487.852C180.144 492.756 182.115 494.385 184.5 492ZM350.176 493.698C345.331 488.853 346.588 480.574 352.544 478.107C356.454 476.487 359.806 477.721 362.549 481.792C367.319 488.87 363.378 495.938 354.661 495.938C353.426 495.938 351.407 494.93 350.176 493.698ZM360.416 491.041C362.276 488.386 362.273 485.541 360.41 483.226C359.37 481.935 358.803 481.747 358.456 482.578C358.188 483.223 357.079 483.75 355.992 483.75C354.055 483.75 354.052 483.776 355.836 485.093C357.185 486.089 357.384 486.713 356.604 487.504C355.827 488.294 355.827 489.164 356.604 490.841C357.907 493.653 358.563 493.687 360.416 491.041ZM157.433 487.522C152.583 484.958 151.56 483.38 152.275 479.569C153.048 475.449 158.348 469.686 161.361 469.691C165.002 469.697 169.39 472.977 170.58 476.582C171.514 479.412 171.396 480.401 169.736 483.655C166.69 489.626 163.38 490.666 157.433 487.522ZM166.268 483.903C169.431 480.408 164.973 472.168 160.788 473.774C158.47 474.663 159.187 476.026 161.719 475.542C163.437 475.214 164.062 475.498 164.062 476.609C164.062 477.443 163.458 478.125 162.72 478.125C161.336 478.125 161.296 480.821 162.633 483.984C163.514 486.071 164.322 486.053 166.268 483.903ZM368.906 487.396C360.698 482.677 362.733 470.625 371.738 470.625C373.6 470.625 375.975 471.081 377.016 471.638C379.145 472.777 381.562 477.868 381.562 481.213C381.562 485.912 373.325 489.937 368.906 487.396ZM377.625 483.562C380.023 481.165 377.856 474.375 374.693 474.375C373.659 474.375 373.09 474.653 373.429 474.992C373.769 475.331 373.576 476.175 373.002 476.867C372.317 477.693 372.293 478.125 372.932 478.125C373.471 478.125 373.79 479.594 373.646 481.406C373.445 483.944 373.739 484.688 374.943 484.688C375.799 484.688 377.006 484.181 377.625 483.562ZM383.966 477.455C378.748 471.828 379.369 465.369 385.464 461.862C388.792 459.947 389.002 459.936 392.32 461.518C394.794 462.698 396.26 464.322 397.613 467.382C399.9 472.551 399.347 474.627 394.872 477.668C390.362 480.733 386.943 480.666 383.966 477.455ZM395.438 474.188C397.21 472.415 396.759 469.082 394.371 466.307L392.179 463.758L390.152 465.785C387.811 468.126 387.483 469.875 389.531 469.089C391.165 468.462 391.45 470.198 389.872 471.173C389.168 471.608 389.564 472.412 391.044 473.551C393.712 475.602 393.984 475.641 395.438 474.188ZM385.986 470.915C385.71 469.469 386.11 467.467 386.922 466.227C388.408 463.96 387.437 463.251 385.5 465.188C384.304 466.383 383.951 471.764 385 472.812C386.179 473.991 386.468 473.435 385.986 470.915ZM140.914 478.16C137.205 476.587 135.584 472.995 136.663 468.743C137.763 464.409 137.137 464.071 134.062 467.344C131.154 470.439 127.974 470.306 124.615 466.947C120.653 462.984 120.814 458.374 125.062 454.125C127.454 451.734 129.057 450.938 131.48 450.938C136.142 450.938 138.318 453.702 138.142 459.404L138.003 463.919L140.955 462.119C145.071 459.609 147.821 459.864 151.01 463.053C158.133 470.177 150.174 482.086 140.914 478.16ZM149.478 473.229C152.076 469.52 150.512 465.475 146.192 464.73C144.935 464.513 144.434 464.516 145.079 464.737C146.319 465.161 145.766 469.398 144.254 471.047C143.805 471.537 143.438 472.697 143.438 473.625C143.438 476.093 147.666 475.815 149.478 473.229ZM134.587 462.702C136.068 460.443 135.735 456.562 134.06 456.562C131.863 456.562 128.438 458.555 128.438 459.833C128.438 461.874 130.546 465 131.923 465C132.56 465 133.759 463.966 134.587 462.702ZM401.965 467.274C400.553 466.513 398.723 464.583 397.897 462.986C396.514 460.312 396.52 459.757 397.97 455.959C400.701 448.81 408.445 446.738 413.51 451.803C417.998 456.291 416.558 464.509 410.904 466.68C406 468.563 404.534 468.66 401.965 467.274ZM409.109 464.104C416.411 461.328 415.038 451.875 407.332 451.875C405.595 451.875 403.884 452.342 403.532 452.913C403.1 453.611 403.542 453.744 404.883 453.319C406.336 452.857 406.875 453.084 406.875 454.156C406.875 454.964 406.242 455.625 405.469 455.625C403.239 455.625 403.656 460.382 405.938 460.978C406.969 461.248 407.812 461.841 407.812 462.297C407.812 462.752 406.969 463.125 405.938 463.125C404.906 463.125 404.062 463.547 404.062 464.062C404.062 465.244 406.066 465.261 409.109 464.104ZM405 458.438C405 457.922 405.422 457.5 405.938 457.5C406.453 457.5 406.875 457.922 406.875 458.438C406.875 458.953 406.453 459.375 405.938 459.375C405.422 459.375 405 458.953 405 458.438ZM111.094 456.417C107.98 454.714 106.875 452.651 106.875 448.541C106.875 443.756 109.392 440.24 113.875 438.76C117.614 437.526 119.742 438.34 122.74 442.152C125.829 446.079 125.138 450.471 120.657 455.391C118.562 457.691 114.266 458.152 111.094 456.417ZM120.368 451.33C122.171 446.632 119.982 444.026 115.781 445.869C114.234 446.548 113.531 447.122 114.219 447.145C114.906 447.169 115.278 447.715 115.044 448.359C114.536 449.761 117 452.812 118.639 452.812C119.277 452.812 120.055 452.145 120.368 451.33ZM115.734 442.28C116.234 441.878 115.953 441.562 115.095 441.562C114.254 441.562 112.618 442.934 111.46 444.609L109.355 447.656L112.099 445.327C113.609 444.045 115.245 442.674 115.734 442.28ZM419.455 453.815C416.112 452.402 412.5 447.309 412.5 444.01C412.5 437.306 421.105 433.375 427.134 437.325C430.079 439.255 432.415 444.549 431.655 447.575C430.448 452.387 423.945 455.713 419.455 453.815ZM426.994 449.862C429.108 448.199 429.455 447.352 428.985 445.001C428.28 441.477 426.205 439.099 423.169 438.337C419.999 437.541 418.112 438.826 420.924 439.866C422.968 440.622 423 440.75 421.438 441.892C419.504 443.307 420.214 447.188 422.407 447.188C423.146 447.188 423.75 447.659 423.75 448.234C423.75 448.845 422.774 449.095 421.406 448.833C419.895 448.544 419.062 448.811 419.062 449.583C419.062 452.327 423.655 452.488 426.994 449.862ZM417.459 445.312C417.189 444.281 416.807 443.438 416.609 443.438C416.412 443.438 416.25 444.281 416.25 445.312C416.25 446.344 416.632 447.188 417.1 447.188C417.567 447.188 417.729 446.344 417.459 445.312ZM94.5057 440.587C92.1252 438.207 91.7532 437.25 92.2477 434.777C93.1146 430.443 95.3508 427.519 98.9491 426.015C103.413 424.15 105.307 424.351 107.548 426.928C110.344 430.144 110.861 432.518 109.702 436.823C107.851 443.695 99.6463 445.728 94.5057 440.587ZM106.343 435.655C107.026 433.721 106.842 432.767 105.494 431.278C103.812 429.42 101.587 428.582 102.574 430.179C102.847 430.621 102.703 432.266 102.253 433.834C100.829 438.8 104.633 440.494 106.343 435.655ZM100.152 430.312C100.756 430.312 101.25 429.891 101.25 429.375C101.25 427.415 97.0908 429.459 96.1637 431.875C95.581 433.393 95.6484 433.394 97.2991 431.901C98.2642 431.027 99.548 430.312 100.152 430.312ZM432.656 439.734C429.595 438.473 426.562 433.534 426.562 429.81C426.562 427.28 427.288 425.693 429.42 423.561C431.998 420.983 432.705 420.752 436.653 421.197C444.828 422.118 450 431.092 445.477 436.503C442.251 440.362 437.245 441.624 432.656 439.734ZM440.651 437.164C445.271 434.002 445.611 430.91 441.746 427.207C438.98 424.557 433.765 423.476 435.847 425.984C436.677 426.984 436.596 427.407 435.493 427.83C433.334 428.658 433.77 431.069 436.543 433.639L439.024 435.938L435.84 435.967C432.837 435.995 432.76 436.075 434.476 437.374C436.812 439.14 437.812 439.106 440.651 437.164ZM83.3261 429.369C82.4913 428.881 81.2768 427.199 80.6271 425.63C79.6347 423.234 79.6938 422.144 80.997 418.811C81.8501 416.629 83.6366 414.052 84.9671 413.084C87.0598 411.562 87.8717 411.471 90.9865 412.404C95.1301 413.645 98.4375 417.33 98.4375 420.705C98.4375 424.36 91.9439 430.32 88.0009 430.284C86.2645 430.268 84.1608 429.856 83.3261 429.369ZM93.75 424.219C94.8038 421.447 93.494 417.188 91.5879 417.188C89.3357 417.188 87.6667 421.53 88.8883 424.211C90.2607 427.223 92.6064 427.227 93.75 424.219ZM443.812 421.5C436.996 414.684 441.459 405 451.417 405C459.582 405 463.45 415.506 457.593 421.776C455.385 424.139 454.131 424.688 450.936 424.688C447.71 424.688 446.425 424.113 443.812 421.5ZM455.786 420.323C458.401 417.957 458.062 412.39 455.149 409.857C453.856 408.732 451.852 407.855 450.696 407.906C448.657 407.997 448.663 408.019 450.868 408.635C454.156 409.554 454.187 410.986 450.946 412.21C447.339 413.571 447.053 416.883 450.469 417.74C451.758 418.064 452.813 418.704 452.813 419.164C452.813 419.624 451.758 420 450.469 420C449.18 420 448.125 420.422 448.125 420.938C448.125 422.468 453.93 422.003 455.786 420.323ZM449.555 415.35C448.76 414.064 449.463 413.098 450.849 413.574C451.416 413.769 451.489 414.431 451.025 415.178C450.439 416.121 450.059 416.166 449.555 415.35ZM73.2742 415.287C67.6375 412.938 66.0385 407.117 69.4937 401.527C73.2693 395.418 78.9387 394.938 83.7972 400.315C87.9977 404.965 88.0523 407.308 84.0645 411.789C80.708 415.56 76.8942 416.796 73.2742 415.287ZM82.8663 408.356C83.6376 405.282 82.6719 403.125 80.5247 403.125C79.2727 403.125 78.75 403.793 78.75 405.392C78.75 410.534 81.7733 412.71 82.8663 408.356ZM458.727 405.987C455.483 404.514 454.623 403.553 453.794 400.474C451.963 393.678 455.592 389.062 462.766 389.062C467.882 389.062 472.5 393.043 472.5 397.454C472.5 401.794 470.165 405.588 466.764 406.773C463.031 408.075 463.405 408.111 458.727 405.987ZM467.812 403.125C469.926 401.011 470.277 396.722 468.516 394.514C467.114 392.757 461.556 391.559 460.762 392.843C460.454 393.342 461.151 393.75 462.311 393.75C464.367 393.75 464.375 393.785 462.601 395.126C460.954 396.372 460.937 396.506 462.422 396.533C463.324 396.549 464.062 397.034 464.062 397.609C464.062 398.195 463.236 398.44 462.188 398.166C460.969 397.847 460.312 398.137 460.312 398.994C460.312 399.719 460.945 400.312 461.719 400.312C463.567 400.312 463.527 401.833 461.659 402.549C460.853 402.859 460.456 403.537 460.777 404.056C461.76 405.645 465.831 405.107 467.812 403.125ZM61.221 398.426C57.0921 396.764 54.76 388.654 57.7074 386.208C58.509 385.542 59.5262 384.323 59.9677 383.498C60.6535 382.217 60.2264 382.05 57.0413 382.353C50.7023 382.958 46.2908 376.912 49.1029 371.474C51.4127 367.007 54.0807 365.274 58.7421 365.213C62.3517 365.165 63.344 365.562 64.9563 367.698C67.526 371.103 67.4146 375.378 64.6803 378.289L62.4857 380.625H66.8201C70.6337 380.625 71.442 381.002 73.546 383.76C76.7166 387.917 76.652 391.78 73.3594 394.921C70.8179 397.346 66.5614 399.432 64.3921 399.316C63.7811 399.283 62.3541 398.883 61.221 398.426ZM71.2413 392.353C73.1355 390.337 73.2866 389.694 72.3503 387.639C70.8004 384.237 68.7491 383.788 66.6176 386.383C64.9687 388.391 64.8341 391.409 66.2787 393.984C67.0369 395.336 69.0656 394.669 71.2413 392.353ZM62.7806 376.445C64.1898 374.747 63.1775 369.456 61.3059 368.738C59.5421 368.061 57.1875 370.099 57.1875 372.302C57.1875 373.27 56.7656 374.062 56.25 374.062C54.5885 374.062 55.2514 375.463 57.4219 376.538C60.4167 378.021 61.4879 378.002 62.7806 376.445ZM469.531 388.293C467.031 387.275 464.062 382.887 464.062 380.213C464.062 369.859 475.528 364.866 481.455 372.637C484.144 376.162 484.349 379.305 482.188 383.837C480.108 388.198 474.307 390.24 469.531 388.293ZM479.967 383.499C481.709 380.245 481.145 375.251 478.854 373.647C476.51 372.005 471.974 371.7 471.094 373.125C470.775 373.641 471.172 374.062 471.976 374.062C472.78 374.062 473.438 374.695 473.438 375.469C473.438 376.242 473.859 376.875 474.375 376.875C474.891 376.875 475.312 377.719 475.312 378.75C475.312 381.057 472.817 381.243 472.161 378.984C471.886 378.037 471.758 378.334 471.858 379.688C471.98 381.338 472.656 382.12 474.141 382.331C475.301 382.496 476.25 383.234 476.25 383.971C476.25 385.936 478.839 385.607 479.967 383.499ZM479.426 367.519C475.695 366.011 473.21 361.773 473.738 357.818C474.374 353.042 476.568 350.833 481.391 350.11C491.268 348.628 496.491 358.026 490.22 365.999C488.196 368.571 483.624 369.215 479.426 367.519ZM488.229 364.166C492.168 361.407 489.623 353.235 484.922 353.546C483.49 353.641 483.477 353.707 484.822 354.064C487.087 354.667 484.966 360 482.462 360C480.706 360 480.702 360.061 482.344 361.875C483.824 363.51 483.849 363.75 482.542 363.75C481.718 363.75 480.387 362.812 479.584 361.666C478.708 360.415 478.125 360.105 478.125 360.889C478.125 364.978 484.239 366.96 488.229 364.166ZM46.4062 364.57C42.8163 362.51 40.3125 359.66 40.3125 357.633C40.3125 353.215 42.2185 350.035 45.8178 348.447C50.5485 346.359 53.6005 346.465 56.5923 348.818C58.7119 350.485 59.0625 351.474 59.0625 355.785C59.0625 360.266 58.7665 361.021 56.3289 362.756C52.8734 365.217 48.8243 365.957 46.4062 364.57ZM56.8513 357.649C57.4233 356.158 54.9061 351.562 53.5175 351.562C52.1351 351.562 51.4066 356.339 52.5744 357.746C54.0084 359.474 56.1698 359.425 56.8513 357.649ZM489.32 348.799C484.77 347.418 482.649 345.776 481.327 342.611C479.427 338.065 479.646 336.773 482.856 333.563C485.451 330.967 486.137 330.748 490.386 331.156C493.541 331.46 495.814 332.312 497.374 333.779C499.723 335.985 500.458 339.726 498.75 340.781C498.234 341.1 497.812 340.557 497.812 339.576C497.812 337.35 495.312 335.028 492.034 334.211C490.166 333.744 489.025 334.1 487.503 335.622C486.384 336.741 485.722 337.909 486.031 338.219C486.341 338.528 487.093 338.282 487.703 337.672C490.473 334.902 492.782 338.314 490.078 341.18C489.141 342.173 489.141 342.508 490.078 342.852C490.723 343.088 491.25 343.928 491.25 344.719C491.25 346.137 492.387 346.095 496.172 344.537C498.92 343.406 498.197 347.336 495.425 348.6C492.759 349.814 492.676 349.817 489.32 348.799ZM36.7364 344.539C31.997 338.514 33.8422 330.174 40.3458 328.226C42.2518 327.655 44.6741 327.188 45.7286 327.188C50.0931 327.188 54.7837 336.983 52.4802 341.287C49.5706 346.724 40.0084 348.699 36.7364 344.539ZM49.5109 338.177C49.8055 335.697 48.3172 331.857 47.0764 331.896C46.7078 331.907 45.4252 332.671 44.2262 333.594L42.0461 335.271L44.6751 338.267C47.6937 341.707 49.0947 341.681 49.5109 338.177ZM43.8086 331.309C43.4971 330.997 42.6885 330.964 42.0117 331.235C41.2638 331.534 41.486 331.756 42.5781 331.801C43.5664 331.842 44.1201 331.62 43.8086 331.309ZM491.526 328.962C487.55 327.812 485.625 324.857 485.625 319.905C485.625 314.236 488.668 311.25 494.445 311.25C503.13 311.25 506.234 314.892 504.226 322.728C502.554 329.253 498.839 331.077 491.526 328.962ZM501.587 324.544C503.521 322.978 503.601 322.554 502.556 319.387C501.769 317.004 500.86 315.938 499.615 315.938C498.624 315.938 497.812 316.359 497.812 316.875C497.812 317.391 497.229 317.812 496.515 317.812C495.615 317.812 495.31 318.745 495.518 320.859C495.683 322.535 495.845 324.434 495.878 325.078C495.966 326.803 499.167 326.504 501.587 324.544ZM497.812 314.422C497.812 314.224 496.969 314.062 495.938 314.062C494.906 314.062 494.062 314.445 494.062 314.912C494.062 315.38 494.906 315.541 495.938 315.272C496.969 315.002 497.812 314.62 497.812 314.422ZM32.6264 325.078C30.5982 323.474 28.7859 317.371 29.5687 314.78C30.743 310.895 34.7632 307.5 38.1907 307.5C42.3802 307.5 46.5011 309.731 47.2118 312.384C48.6237 317.655 47.8898 321.331 44.9281 323.823C41.7243 326.519 35.2798 327.176 32.6264 325.078ZM44.4893 318.882C45.3993 316.015 44.0865 314.062 41.2489 314.062C38.9934 314.062 38.6528 314.415 38.7594 316.641C38.9531 320.682 43.3697 322.41 44.4893 318.882ZM40.7812 311.25C40.4626 310.734 39.6188 310.312 38.9062 310.312C38.1937 310.312 37.3499 310.734 37.0312 311.25C36.7013 311.784 37.5087 312.188 38.9062 312.188C40.3038 312.188 41.1112 311.784 40.7812 311.25ZM495.199 308.326C489.215 306.582 486.84 298.021 491.013 293.238C495.014 288.654 504.477 289.245 507.441 294.264C509.244 297.315 509.593 300.938 508.084 300.938C507.546 300.938 507.174 301.465 507.257 302.109C507.619 304.896 507.079 306.553 505.547 307.356C502.692 308.852 498.387 309.256 495.199 308.326ZM503.527 304.954C507.213 302.777 507.206 298.937 503.51 295.24C500.632 292.363 499.907 292.091 498.133 293.22C496.673 294.148 497.679 299.062 499.328 299.062C501.244 299.062 500.907 300.932 498.984 300.969C497.589 300.995 497.663 301.266 499.481 302.782C501.477 304.447 501.508 304.627 499.949 305.535C498.877 306.159 498.732 306.516 499.543 306.534C500.237 306.55 502.03 305.839 503.527 304.954ZM33.0695 303.927C28.9296 303.527 26.25 299.946 26.25 294.814C26.25 291.415 26.744 290.386 29.5639 287.91C33.1848 284.73 37.1734 284.151 41.2479 286.212C43.1713 287.185 43.7265 288.377 44.3555 292.881C45.0766 298.044 44.9759 298.516 42.6304 300.965C39.967 303.744 37.8795 304.391 33.0695 303.927ZM41.0773 294.114C40.6621 291.193 37.1381 291.277 36.7217 294.217C36.3266 297.006 39.4221 299.666 40.6085 297.556C41.0292 296.808 41.2401 295.259 41.0773 294.114ZM35.3711 289.121C35.0596 288.81 34.251 288.776 33.5742 289.047C32.8263 289.346 33.0485 289.569 34.1406 289.613C35.1289 289.654 35.6826 289.433 35.3711 289.121ZM495.938 287.157C491.688 285.623 489.529 276.542 492.667 273.404C494.527 271.545 501.682 270.51 505.02 271.617C509.934 273.247 511.244 280.125 507.677 285.568C506.454 287.434 505.46 287.8 501.775 287.738C499.338 287.698 496.711 287.436 495.938 287.157ZM506.062 283.875C507.445 282.493 507.519 278.934 506.217 276.501C505.158 274.522 503.295 274.009 503.672 275.801C503.801 276.414 502.855 276.94 501.562 276.972C498.607 277.047 498.014 279.949 500.356 282.879C502.217 285.208 504.357 285.581 506.062 283.875ZM26.7866 279.997C24.0665 277.277 23.751 274.246 25.7019 269.577C27.3094 265.729 29.6112 264.375 34.5425 264.375C39.6157 264.375 43.125 268.37 43.125 274.145C43.125 279.462 40.8934 281.439 34.2721 281.988C29.7748 282.361 28.9242 282.134 26.7866 279.997ZM38.9513 276.157C40.1138 274.382 40.2154 273.445 39.4086 271.938C37.6761 268.7 33.5566 270.015 33.23 273.909C32.8453 278.496 36.4827 279.924 38.9513 276.157ZM493.675 267.084C491.444 265.329 491.191 264.562 491.439 260.318C491.688 256.059 492.069 255.296 494.904 253.391C498.86 250.732 504.278 250.58 507.318 253.042C509.174 254.545 509.531 255.694 509.531 260.156C509.531 264.618 509.174 265.768 507.318 267.27C504.192 269.802 497.005 269.703 493.675 267.084ZM506.706 263.478C507.56 260.785 506.283 255.213 504.669 254.594C502.765 253.863 499.757 257.67 499.719 260.859C499.695 262.823 500.134 263.438 501.562 263.438C502.594 263.438 503.438 263.859 503.438 264.375C503.438 266.081 506.113 265.347 506.706 263.478ZM500.625 259.688C500.625 259.172 501.047 258.75 501.562 258.75C502.078 258.75 502.5 259.172 502.5 259.688C502.5 260.203 502.078 260.625 501.562 260.625C501.047 260.625 500.625 260.203 500.625 259.688ZM30.2219 260.116C21.7057 256.536 25.5723 243.75 35.1713 243.75C40.6763 243.75 44.7045 248.94 43.6329 254.652C43.0142 257.95 39.4693 261.149 37.2957 260.371C36.6346 260.134 35.455 260.267 34.6743 260.666C33.8884 261.068 31.9014 260.823 30.2219 260.116ZM40.7179 253.78C41.4015 251.846 41.2166 250.892 39.8694 249.403C37.8566 247.179 36.5625 246.954 36.5625 248.828C36.5625 249.559 36.0352 250.341 35.3906 250.566C34.5317 250.867 34.6568 251.47 35.8594 252.827C36.7617 253.846 37.5 255.208 37.5 255.855C37.5 257.865 39.7979 256.383 40.7179 253.78ZM494.324 248.243C493.179 247.69 491.543 245.407 490.689 243.169C489.247 239.394 489.246 238.931 490.674 236.751C494.585 230.782 502.072 229.317 505.903 233.771C509.196 237.599 509.066 244.749 505.655 247.432C502.961 249.551 497.799 249.92 494.324 248.243ZM501.309 245.059C500.997 244.747 500.188 244.714 499.512 244.985C498.764 245.284 498.986 245.506 500.078 245.551C501.066 245.592 501.62 245.37 501.309 245.059ZM504.928 242.344C506.322 236.788 501.88 231.953 498.14 234.955C496.495 236.276 496.514 236.317 498.516 235.767C501.035 235.073 501.26 236.03 498.984 237.757C497.422 238.944 497.422 239.004 498.984 239.033C499.928 239.05 500.625 239.779 500.625 240.75C500.625 242.479 502.298 244.687 503.607 244.687C504.01 244.687 504.604 243.633 504.928 242.344ZM33.7693 239.891C29.5037 238.189 28.125 236.216 28.125 231.814C28.125 224.064 35.1618 219.961 42.2063 223.603C47.7477 226.469 48.4994 232.46 43.9654 237.624C40.9058 241.108 38.2821 241.692 33.7693 239.891ZM42 234.187C43.5473 232.64 43.416 228.803 41.7945 228.181C41.0627 227.9 39.3906 228.373 38.0788 229.233C35.8137 230.717 35.7681 230.909 37.1734 233.054C38.807 235.547 40.2915 235.896 42 234.187ZM489.303 226.947C484.422 222.066 486.055 214.815 492.598 212.316C498.86 209.925 502.382 211.96 504.092 218.958C505.316 223.968 504.201 226.652 500.201 228.323C495.258 230.388 492.381 230.025 489.303 226.947ZM500.438 224.812C501.819 223.431 501.902 218.949 500.592 216.501C499.629 214.702 496.555 214.15 493.67 215.257C492.119 215.852 491.583 218.437 493.011 218.437C493.464 218.437 494.375 219.742 495.036 221.337C496.038 223.757 496.019 224.374 494.915 225.072C493.972 225.67 494.411 225.913 496.453 225.923C498.026 225.931 499.819 225.431 500.438 224.812ZM35.8396 218.748C34.2871 218.123 31.875 213.426 31.875 211.028C31.875 207.722 33.8826 204.599 37.1328 202.848C40.0251 201.291 40.635 201.263 44.2785 202.526C50.8618 204.807 52.6322 212.809 47.5925 217.504C45.6514 219.312 38.994 220.017 35.8396 218.748ZM47.8125 211.791C47.8125 211.389 47.398 209.969 46.8913 208.637C46.1532 206.695 45.6407 206.39 44.3132 207.101C43.4019 207.589 41.918 208.217 41.0156 208.496C40.1133 208.775 39.375 209.734 39.375 210.627C39.375 211.884 39.6271 211.998 40.4936 211.131C41.3601 210.265 41.8909 210.676 42.8488 212.954C44.0528 215.817 44.1346 215.85 45.949 214.208C46.9739 213.281 47.8125 212.193 47.8125 211.791ZM486.583 209.301C482.647 207.316 480.907 202.778 482.757 199.323C484.091 196.831 489.289 194.062 492.636 194.062C495.755 194.062 499.383 197.656 500.052 201.408C500.518 204.017 500.158 204.986 497.877 207.267C496.374 208.77 494.513 210 493.743 210C492.972 210 491.779 210.213 491.092 210.473C490.406 210.732 488.377 210.205 486.583 209.301ZM496.158 204.952C497.005 203.665 497.052 202.177 496.306 200.233C495.581 198.344 494.585 198.365 491.585 200.33C489.357 201.79 489.297 202 490.798 203.097C491.756 203.797 492.184 204.906 491.842 205.798C491.377 207.011 491.677 207.18 493.365 206.654C494.522 206.293 495.779 205.527 496.158 204.952ZM44.073 199.789C41.4523 199.059 37.5 193.798 37.5 191.039C37.5 188.255 42.5391 183.747 45.631 183.765C50.0049 183.791 55.7309 187.579 56.0888 190.684C56.9502 198.155 51.9138 201.971 44.073 199.789ZM52.3296 193.29C52.612 190.356 51.2883 187.5 49.6454 187.5C49.2329 187.5 48.4027 188.993 47.8005 190.818C46.9464 193.406 46.963 194.445 47.876 195.545C49.7867 197.848 51.9989 196.728 52.3296 193.29ZM480.865 193.027C477.603 191.828 475.375 186.956 476.409 183.281C477.394 179.78 480.584 177.416 485.353 176.654C488.422 176.163 489.483 176.462 491.905 178.5C494.936 181.05 496.375 184.643 495.487 187.441C494.93 189.197 486.724 194.114 484.561 193.988C483.857 193.948 482.194 193.515 480.865 193.027ZM491.069 185.409C491.395 182.675 488.344 179.928 485.182 180.109C483.483 180.206 483.464 180.265 485.009 180.663C486.24 180.981 486.587 181.68 486.216 183.098C485.653 185.251 488.086 188.707 489.775 188.154C490.329 187.972 490.911 186.737 491.069 185.409ZM46.9741 180.093C43.484 176.832 43.2139 173.534 46.1719 170.294C52.1622 163.734 63.7652 168.968 62.135 177.496C61.4781 180.933 58.5295 182.812 53.7968 182.812C50.7749 182.812 49.2239 182.194 46.9741 180.093ZM58.148 176.691C59.0581 175.594 59.0898 174.712 58.2829 172.941C56.7014 169.47 54.375 169.951 54.375 173.75C54.375 178.219 55.8958 179.405 58.148 176.691ZM473.58 175.597C471.811 174.726 469.782 172.672 468.934 170.892C467.549 167.989 467.55 167.526 468.937 165.194C469.767 163.798 472.069 161.714 474.051 160.562C480.165 157.011 484.797 158.102 487.111 163.639C489.069 168.326 488.743 170.927 485.859 173.617C482.441 176.807 477.617 177.584 473.58 175.597ZM484.523 169.362C484.84 166.604 482.541 163.125 480.402 163.125C478.597 163.125 478.209 165.284 479.704 167.004C480.438 167.849 481.106 169.445 481.19 170.55C481.413 173.522 484.158 172.544 484.523 169.362ZM57.1875 165.19C48.794 160.621 50.7931 150 60.0466 150C65.5558 150 69.1055 152.156 70.2153 156.175C72.4317 164.202 64.9209 169.399 57.1875 165.19ZM66.1434 161.195C67.4823 159.716 67.6565 158.895 66.8897 157.679C65.1435 154.911 63.3038 155.822 62.9903 159.609C62.6628 163.567 63.5797 164.028 66.1434 161.195ZM462.793 158.014C458.475 154.012 459.601 148.001 465.333 144.459C471.172 140.85 475.346 141.891 478.236 147.678L480.261 151.732L478.021 154.559C475.443 157.813 470.904 160.312 467.573 160.312C466.309 160.312 464.158 159.278 462.793 158.014ZM474.188 154.5C476.088 152.6 475.53 148.311 473.182 146.772C471.11 145.415 466.875 145.708 466.875 147.209C466.875 147.616 467.719 147.729 468.75 147.459C470.895 146.898 471.072 147.434 469.549 149.874C468.683 151.259 468.821 151.977 470.252 153.533C472.394 155.863 472.74 155.948 474.188 154.5ZM69.5325 149.275C62.1423 146.805 60.0308 139.892 65.2438 135.234C73.0197 128.286 85.1958 139.249 78.7726 147.415C76.3264 150.524 74.4195 150.908 69.5325 149.275ZM75.3921 145.681C77.8026 144.756 76.6881 136.875 74.1467 136.875C73.0612 136.875 72.1749 141.781 72.8169 144.236C73.4072 146.493 73.3539 146.463 75.3921 145.681ZM456.04 143.932C449.503 141.146 448.426 135.81 453.218 129.95C454.967 127.811 456.395 127.151 460.027 126.802C464.4 126.382 464.746 126.521 467.155 129.68C470.511 134.08 470.379 136.805 466.641 140.266C462.189 144.388 459.386 145.358 456.04 143.932ZM464.791 139.166C467.385 137.349 467.421 135.587 464.936 132.098C462.797 129.093 459.208 128.47 456.964 130.714C455.068 132.611 455.304 133.363 457.438 132.22C460.509 130.577 461.25 131.109 461.25 134.953C461.25 137.491 460.734 138.958 459.609 139.612C458.182 140.444 458.277 140.572 460.338 140.596C461.642 140.612 463.645 139.968 464.791 139.166ZM78.6499 133.597C75.5795 131.928 73.125 128.249 73.125 125.316C73.125 122.005 76.3857 118.425 80.0241 117.743C85.9477 116.632 90.1972 119.814 91.5023 126.34C91.9968 128.812 91.6248 129.769 89.2443 132.15C86.083 135.311 82.6636 135.778 78.6499 133.597ZM87.9584 126.271C88.2543 123.691 86.8294 120.937 85.1977 120.937C84.7452 120.937 84.375 121.549 84.375 122.297C84.375 123.045 83.6367 124.124 82.7344 124.695C81.5595 125.439 81.4264 125.874 82.2656 126.226C82.9102 126.497 83.4375 127.346 83.4375 128.112C83.4375 129.021 84.1712 129.401 85.5469 129.206C87.0703 128.989 87.7402 128.174 87.9584 126.271ZM79.6875 122.702C79.6875 122.186 79.2656 122.025 78.75 122.344C78.2344 122.662 77.8125 123.345 77.8125 123.861C77.8125 124.376 78.2344 124.537 78.75 124.219C79.2656 123.9 79.6875 123.217 79.6875 122.702ZM442.419 128.173C440.215 126.481 438.75 123.293 438.75 120.188C438.75 114.316 446.322 109.263 451.751 111.511C456.52 113.487 459.236 121.142 456.094 123.75C455.32 124.392 454.688 125.431 454.688 126.058C454.688 128.86 445.399 130.461 442.419 128.173ZM452.215 124.213C454.55 121.878 455.036 119.009 453.378 117.351C452.399 116.372 451.875 116.245 451.875 116.987C451.875 117.613 450.787 118.125 449.457 118.125C447.258 118.125 447.094 118.38 447.656 120.937C448.1 122.959 447.923 123.754 447.028 123.764C446.098 123.775 446.138 124.009 447.188 124.687C449.177 125.973 450.588 125.84 452.215 124.213ZM449.062 115.001C451.077 114.61 451.026 114.567 448.7 114.695C446.909 114.793 445.523 115.636 444.601 117.187L443.207 119.531L444.963 117.493C445.929 116.373 447.773 115.251 449.062 115.001ZM90.3109 119.003C81.1343 113.125 87.0489 100.105 97.4767 103.229C102.576 104.757 104.517 107.132 104.398 111.7C104.195 119.423 96.8831 123.213 90.3109 119.003ZM101.25 110.982C101.25 107.315 95.6765 103.636 93.4681 105.844C92.719 106.594 92.9694 106.875 94.3852 106.875C95.4565 106.875 96.8581 107.508 97.5 108.281C98.4751 109.456 98.3397 109.687 96.6773 109.687C94.1289 109.687 94.1613 110.805 96.7969 113.803C98.7202 115.992 99.0096 116.066 100.078 114.641C100.723 113.782 101.25 112.135 101.25 110.982ZM433.437 114.584C432.319 114.409 430.264 113.208 428.87 111.916C426.595 109.807 426.383 109.077 426.795 104.782C427.099 101.625 427.838 99.5718 428.968 98.7453C431.076 97.2036 433.215 98.7228 431.438 100.5C429.997 101.941 429.998 103.125 431.44 103.125C432.06 103.125 433.921 104.438 435.577 106.043C438.8 109.166 440.625 109.002 440.625 105.59C440.625 103.27 437.227 99.0468 435.98 99.8176C435.549 100.084 434.927 99.5996 434.598 98.7414C434.053 97.3217 435.378 95.6751 437.094 95.6393C439.066 95.5982 443.553 101.099 444.038 104.151C444.49 106.998 444.12 108.037 441.66 110.839C438.616 114.306 436.834 115.118 433.437 114.584ZM437.109 110.004C436.465 109.744 435.41 109.744 434.766 110.004C434.121 110.264 434.648 110.477 435.938 110.477C437.227 110.477 437.754 110.264 437.109 110.004ZM105.28 105.352C98.142 101.833 97.2163 94.647 103.247 89.5724C109.353 84.4347 117.663 88.0399 118.772 96.3076C119.202 99.5099 118.861 100.477 116.256 103.443C112.88 107.288 110.164 107.761 105.28 105.352ZM113.839 100.714C114.65 99.904 115.312 97.8186 115.312 96.0799C115.312 92.44 112.57 89.9346 108.776 90.1087C106.843 90.1974 106.752 90.3007 108.281 90.6685C111.637 91.4757 111.97 92.7024 109.137 93.8269C107.583 94.444 106.921 95.1018 107.601 95.3539C108.259 95.5975 109.397 97.2347 110.132 98.9921C111.657 102.642 111.831 102.723 113.839 100.714ZM413.621 98.1585C410.177 94.6046 410.052 93.8341 412.193 89.3232C414.981 83.4482 422.522 81.7362 427.428 85.8646C430.71 88.6264 431.192 92.1422 428.897 96.5813C427.114 100.028 424.85 101.25 420.246 101.25C417.373 101.25 415.994 100.607 413.621 98.1585ZM424.9 95.8594C427.431 92.9767 427.657 90.5219 425.594 88.3074C422.382 84.86 421.23 85.6576 421.456 91.1719C421.566 93.8789 421.706 96.4101 421.766 96.7969C421.953 98.0026 423.398 97.5705 424.9 95.8594ZM119.215 90.1428C117.643 88.6744 116.065 86.3096 115.708 84.8876C114.723 80.9625 117.434 76.1307 121.596 74.3916C124.707 73.0917 125.349 73.0932 128.103 74.4064C132.561 76.5321 134.538 80.1388 134.17 85.4749C134.111 86.3377 132.97 88.3416 131.635 89.9281C128.319 93.8692 123.297 93.956 119.215 90.1428ZM130.584 85.2232C132.129 82.7696 130.574 79.0177 127.344 77.4062C124.638 76.0566 124.176 76.0572 122.107 77.4128C119.228 79.2992 119.881 80.0428 123.281 78.75C126.351 77.583 127.3 78.1383 125.645 80.1328C124.69 81.283 124.69 82.1165 125.643 84.4176C126.899 87.4508 128.969 87.7883 130.584 85.2232ZM399.499 86.3929C396.51 83.9143 396.378 83.5518 397.039 79.6425C397.644 76.0601 397.553 75.664 396.352 76.6607C395.59 77.2928 393.111 78.0326 390.843 78.3046C385.043 79.0002 381.372 75.9574 381.224 70.3335C381.135 66.921 381.588 65.9653 384.609 63.1967C388.659 59.4855 391.774 59.1327 395.715 61.9388C398.208 63.7141 398.438 64.3574 398.438 69.5653V75.2529L400.381 72.7827C403.16 69.2487 407.667 69.4191 411.999 73.2221C413.821 74.8224 415.312 76.9453 415.312 77.9397C415.312 81.4283 412.629 86.1353 409.808 87.594C405.751 89.6919 403.104 89.3835 399.499 86.3929ZM409.479 83.8531C411.842 82.1976 412.312 77.7269 410.299 76.0556C409.333 75.2543 408.623 75.461 407.293 76.9307C405.854 78.521 405.749 79.1711 406.69 80.6774C407.704 82.3006 407.571 82.5 405.477 82.5C403.019 82.5 402.277 83.8767 404.297 84.6916C406.336 85.5143 407.339 85.3519 409.479 83.8531ZM405.524 74.5611C407.053 73.4047 407.1 73.1799 405.818 73.1548C404.979 73.1384 403.767 73.7578 403.125 74.5312C401.629 76.3336 403.155 76.3526 405.524 74.5611ZM393.812 73.092C396.223 71.8016 396.189 67.126 393.75 64.6875C391.637 62.5749 391.06 62.4594 389.063 63.75C387.925 64.4849 388.06 64.6615 389.766 64.6731C391.491 64.6849 391.875 65.2103 391.875 67.5616C391.875 69.1424 391.438 71.2518 390.905 72.2491C389.789 74.3334 390.894 74.6537 393.812 73.092ZM135.827 77.9228C130.464 72.5593 130.899 66.3716 136.856 63.2909C143.813 59.6932 151.884 64.1209 151.871 71.5285C151.864 75.2728 148.492 79.4977 144.658 80.5622C139.72 81.9335 139.888 81.9839 135.827 77.9228ZM148.429 72.7467C149.252 70.6023 148.079 67.6856 145.791 66.1862C143.168 64.4675 142.5 65.0416 142.5 69.0159C142.5 73.087 147.171 76.0259 148.429 72.7467ZM156.913 70.3261C152.452 68.5249 149.207 60.8918 151.118 56.6973C152.493 53.6796 158.797 50.2767 161.675 50.999C170.573 53.2323 172.471 65.8685 164.481 69.6788C160.832 71.4192 159.831 71.5047 156.913 70.3261ZM166.013 62.5515C167.365 59.5856 165.67 55.5208 162.594 54.3515C159.614 53.2184 158.464 53.8048 159.076 56.1451C159.33 57.1177 159.08 58.1968 158.519 58.5433C156.661 59.6915 157.332 62.0547 159.335 61.4188C160.596 61.0187 161.548 61.4394 162.373 62.7619C163.924 65.244 164.81 65.1928 166.013 62.5515ZM368.303 67.9534C365.936 66.6676 363.75 62.4197 363.75 59.1058C363.75 58.2523 365.178 55.9949 366.923 54.0894C371.173 49.4494 374.867 49.3669 379.312 53.8125C383.849 58.3486 383.332 63.8599 377.965 68.2031C376.052 69.7513 371.39 69.6308 368.303 67.9534ZM378.207 62.9561C378.966 61.4883 379.341 59.3465 379.04 58.1967C378.397 55.7358 374.258 53.8045 372.785 55.2777C372.113 55.9491 372.306 56.25 373.406 56.25C375.191 56.25 375.539 57.6813 373.987 58.6407C373.416 58.9933 373.232 60.2998 373.566 61.6305C374.079 63.6723 373.898 63.9256 372.236 63.491C371.178 63.2144 370.312 63.3001 370.312 63.6815C370.312 64.9956 371.57 65.625 374.195 65.625C376.14 65.625 377.187 64.9282 378.207 62.9561ZM174.349 60.2774C170.616 57.7041 169.749 56.0452 169.717 51.4115C169.692 47.6644 170.099 46.6958 172.572 44.6146C177.913 40.1203 183.378 41.6858 187.035 48.7575C191.037 56.4954 181.468 65.1841 174.349 60.2774ZM184.688 51.9687C184.688 48.8673 180.734 44.5177 178.644 45.3197C177.607 45.7178 177.207 46.5118 177.57 47.4559C178.031 48.6576 177.694 48.8451 175.89 48.3922C174.406 48.0199 173.461 48.2741 173.131 49.1338C172.468 50.8629 173.276 51.5625 175.938 51.5625C177.141 51.5625 178.125 52.0953 178.125 52.7464C178.125 54.4334 182.068 56.094 183.516 55.017C184.16 54.5376 184.688 53.1659 184.688 51.9687ZM349.76 58.0529C346.038 54.3313 345.862 49.7863 349.266 45.3229C351.981 41.7639 354.179 41.4203 359.651 43.6991C364.09 45.5476 364.655 46.3632 364.673 50.9531C364.685 53.8185 364.03 55.2196 361.5 57.75C357.328 61.9218 353.722 62.0148 349.76 58.0529ZM358.503 57.0583C362.746 55.1249 363.729 47.5897 359.896 46.3732C357.385 45.5763 354.661 48.4285 355.954 50.4997C357.057 52.2656 355.946 56.25 354.35 56.25C353.787 56.25 353.588 56.6719 353.906 57.1875C354.654 58.3969 355.625 58.3696 358.503 57.0583ZM193.303 53.4374C187.657 49.9516 186.089 41.7911 190.328 37.9551C192.629 35.8719 199.496 35.1909 202.398 36.7581C205.396 38.3777 207.689 45.4351 206.356 48.9412C204.391 54.1071 197.97 56.3191 193.303 53.4374ZM201.354 50.1031C205.112 47.4706 203.59 39.375 199.336 39.375C197.916 39.375 196.793 40.2152 196.059 41.8265C194.902 44.3656 195.408 47.8125 196.938 47.8125C198.241 47.8125 197.995 50.395 196.641 50.9416C195.996 51.2017 196.324 51.4478 197.37 51.4885C198.415 51.5292 200.208 50.9058 201.354 50.1031ZM334.085 53.4454C331.037 52.2156 329.067 48.7555 329.023 44.557L328.984 40.7812L327.295 43.951C324.199 49.7607 318.761 51.22 314.349 47.4249C312.098 45.4886 311.719 44.4636 311.719 40.3168C311.719 35.9991 312.063 35.164 314.874 32.6517C317.594 30.2215 318.5 29.9194 321.437 30.4641C325.847 31.2823 327.943 33.2354 328.692 37.2239L329.295 40.4404L331.929 37.9169C334.28 35.6649 335.022 35.4623 338.83 36.0332C343.781 36.7758 345.938 39.1465 345.938 43.8489C345.938 51.5746 340.453 56.0152 334.085 53.4454ZM340.419 50.568C343.101 49.1325 344.184 45.6277 342.997 42.2226C341.847 38.9245 341.269 38.7446 339.281 41.0659C338.335 42.1713 337.974 43.9569 338.238 46.2222C338.49 48.3783 338.25 49.6875 337.603 49.6875C337.031 49.6875 336.562 50.1094 336.562 50.625C336.562 51.8398 338.085 51.8173 340.419 50.568ZM325.134 40.5825C325.419 37.644 324.03 33.75 322.696 33.75C321.074 33.75 319.647 39.1474 320.604 41.6633C321.95 45.2028 324.751 44.5345 325.134 40.5825ZM212.096 47.7782C208.012 46.1378 206.743 37.6341 209.97 33.5323C212.094 30.8318 217.952 29.5053 221.61 30.8963C224.346 31.9364 226.875 36.282 226.875 39.9431C226.875 41.338 225.799 43.8902 224.484 45.6146C222.421 48.3191 221.551 48.7418 218.155 48.6906C215.99 48.6579 213.263 48.2473 212.096 47.7782ZM223.572 42.2573C224.236 40.1624 221.816 33.75 220.36 33.75C219.107 33.75 215.625 37.1972 215.625 38.4375C215.625 38.9531 216.073 39.375 216.621 39.375C217.169 39.375 217.49 40.1283 217.334 41.049C217.178 41.9698 217.679 43.4014 218.447 44.2304C220.106 46.0204 222.693 45.024 223.572 42.2573ZM233.772 44.9932C228.527 42.9148 226.925 34.1184 230.992 29.7297C235.636 24.7189 244.074 25.8668 246.551 31.8463C248.016 35.3831 247.218 41.042 244.952 43.1905C242.958 45.0812 236.587 46.1085 233.772 44.9932ZM243.562 39.1875C246.837 35.9131 242.668 29.9216 237.258 30.1277C235.074 30.2109 234.64 30.3968 236.014 30.6614C237.382 30.925 238.31 31.9496 238.657 33.5806C239.451 37.3071 240.795 40.3125 241.667 40.3125C242.091 40.3125 242.944 39.8062 243.562 39.1875ZM296.25 44.7274C293.302 43.24 291.521 38.1237 292.605 34.2537C293.043 32.6876 294.656 30.2694 296.189 28.88C298.526 26.7618 299.551 26.4421 302.535 26.9007C307.168 27.6127 308.223 28.5334 309.395 32.8866C310.597 37.35 309.931 40.2007 306.931 43.4358C304.347 46.2227 300.206 46.7234 296.25 44.7274ZM306.937 38.9495C307.642 36.1391 305.818 30.9375 304.127 30.9375C303.164 30.9375 302.812 32.2731 302.812 35.9375C302.812 38.6875 303.065 41.1897 303.373 41.4979C304.415 42.5398 306.39 41.1274 306.937 38.9495ZM253.785 42.5661C248.709 39.8142 247.88 32.6407 252.092 27.9267C257.245 22.1589 265.085 24.5022 266.654 32.2794C267.612 37.0266 266.305 41.1733 263.374 42.6893C260.031 44.4181 257.132 44.3808 253.785 42.5661ZM262.661 37.0513C263.374 35.4868 263.435 33.7254 262.846 31.6606C262.158 29.2491 261.403 28.528 259.309 28.2861C257.845 28.1169 256.192 28.4333 255.636 28.9892C254.913 29.7119 255.341 30 257.136 30C259.466 30 259.571 30.1668 258.592 32.316C257.787 34.0835 257.816 34.9689 258.718 36.0549C259.674 37.2067 259.655 37.5551 258.621 37.8834C257.919 38.1064 256.711 38.5 255.938 38.758C255.164 39.0159 256.122 39.2603 258.067 39.301C260.958 39.3615 261.796 38.9512 262.661 37.0513ZM274.519 42.534C270.849 41.0107 269.062 37.7578 269.062 32.6005C269.062 28.4558 273.572 24.3715 278.131 24.3878C285.809 24.4152 289.006 27.2647 289.006 34.0818C289.006 37.2024 288.43 38.3668 285.61 40.9509C281.876 44.3733 279.699 44.684 274.519 42.534ZM278.438 39.375C278.438 38.8594 277.699 38.444 276.797 38.4518C275.395 38.4641 275.361 38.5983 276.562 39.375C278.332 40.5184 278.438 40.5184 278.438 39.375ZM285.368 36.0171C286.395 33.3412 285.969 31.3245 283.908 29.1127C281.955 27.016 281.831 26.9996 280.606 28.6747C279.906 29.6318 279.604 31.0599 279.935 31.8481C280.265 32.6363 280.549 33.9141 280.566 34.6875C280.625 37.4565 284.414 38.5053 285.368 36.0171Z" fill="#FBCF7E" fill-opacity="1"/>
</g>
<g style="mix-blend-mode:color-burn">
<path d="M281.372 65.3626C280.056 65.8889 278.653 67.8187 278.082 69.924C277.819 70.8889 277.424 74.8363 277.293 78.6521C276.942 86.1959 276.986 86.0644 274.179 86.8538C270.188 87.9942 266.854 86.9854 265.582 84.31L264.881 82.8187L263.258 84.3977C262.381 85.2749 261.284 85.9766 260.889 85.9766C260.319 85.9766 260.144 86.3714 260.144 87.424C260.144 90.0556 258.126 93.2573 254.968 95.6696C253.389 96.8538 251.109 99.1784 249.924 100.757C248.784 102.38 247.293 103.915 246.635 104.222C245.977 104.485 244.179 105.494 242.6 106.459C241.021 107.38 239.398 108.301 238.96 108.477C238.433 108.652 236.854 108.082 234.442 106.81C231.24 105.099 230.363 104.836 228.17 104.836C225.802 104.836 225.363 105.012 222.951 106.81C221.503 107.906 218.916 109.354 217.117 110.099C215.363 110.801 213.653 111.678 213.302 112.029C211.591 113.74 211.854 119.617 213.872 125.406C214.53 127.205 215.188 130.275 215.451 132.205C216.153 138.477 216.723 139.661 219.354 140.363C221.109 140.845 223.082 142.512 223.433 143.871C223.565 144.398 222.907 146.064 221.723 148.082C219.574 151.81 219.354 153.477 220.451 156.635C221.416 159.354 220.802 160.977 218.258 162.205C217.205 162.731 216.109 163.521 215.845 164.003C215.319 165.056 215.714 165.363 219.354 166.459C221.284 167.029 222.03 167.556 223.082 169.003C225.407 172.205 227.512 171.635 229.486 167.336C231.328 163.257 231.46 163.17 236.24 163.213C238.521 163.213 240.582 163.126 240.802 162.994C241.021 162.819 243.082 162.556 245.363 162.336C247.688 162.117 249.968 161.722 250.451 161.459C250.933 161.152 251.767 159.968 252.293 158.784C253.038 157.029 253.433 156.591 254.31 156.591C255.977 156.591 258.389 155.143 261.898 151.985C266.109 148.17 267.468 147.512 269.135 148.301C271.153 149.266 272.074 151.635 272.03 155.582C271.986 157.468 271.898 159.573 271.767 160.319C270.977 165.275 270.626 171.854 270.758 178.301C270.933 185.45 271.021 185.889 272.293 189.047C273.038 190.845 273.74 192.906 273.872 193.652C274.793 199.354 275.1 200.012 276.81 200.012C278.565 200.012 279.617 201.152 281.24 204.836L282.644 207.906H286.284C289.793 207.906 289.968 207.95 289.968 208.871C290.012 210.275 290.845 211.196 292.819 212.029C293.784 212.468 295.363 213.521 296.328 214.442C299.442 217.468 301.986 217.205 310.451 212.994C313.038 211.722 315.626 210.494 316.109 210.363C316.635 210.187 317.161 209.661 317.293 209.222C317.424 208.74 317.907 208.345 318.389 208.345C320.758 208.345 325.275 200.977 325.275 197.117C325.275 194.135 325.889 193.521 328.916 193.345L331.416 193.213L331.372 190.45C331.328 187.906 331.196 187.556 330.056 186.635C328.96 185.757 328.872 185.538 329.398 184.924C330.188 184.003 331.328 184.047 333.389 185.099C335.582 186.196 337.512 186.24 338.652 185.099C339.705 184.047 339.837 183.345 340.144 178.301C340.275 175.582 340.758 173.082 341.723 170.187C342.6 167.468 343.17 164.705 343.345 162.205L343.609 158.389L340.67 152.292C339.091 148.959 337.775 146.021 337.775 145.757C337.775 145.538 337.161 144.705 336.372 143.915C335.012 142.512 334.837 142.468 332.293 142.643C330.538 142.775 328.652 143.345 326.591 144.31C319.223 147.775 318.302 147.643 320.451 143.564C321.284 141.942 321.986 140.45 321.986 140.143C321.986 138.74 320.1 137.336 316.591 136.152C311.152 134.354 307.775 132.512 308.521 131.766C308.652 131.635 309.968 131.24 311.416 130.889C314.617 130.143 316.196 129.222 316.372 127.994C316.46 127.249 317.03 126.942 319.223 126.503C320.758 126.196 323.214 125.275 324.705 124.485C327.775 122.863 331.854 119.003 332.731 116.942C333.74 114.573 334.398 110.012 334.31 106.064C334.267 101.547 333.828 100.187 332.249 99.4854C331.284 99.0468 331.065 99.0907 330.714 99.7047C330.1 100.757 329.354 100.626 327.468 99.1345C325.538 97.5994 324.047 97.4679 322.205 98.6959C320.363 99.924 319.442 99.8363 319.267 98.3451C319.047 96.4152 317.556 96.5907 313.214 99.0907C311.109 100.319 309.267 101.328 309.091 101.328C308.96 101.328 308.828 100.845 308.828 100.319C308.828 99.1345 309.53 98.4328 312.424 96.81C314.793 95.4503 315.977 93.9591 316.767 91.2837C317.293 89.4415 317.293 89.31 316.284 88.5205C315.714 88.038 314.881 87.7749 314.442 87.8626C313.784 88.038 313.652 87.8187 313.652 86.5468C313.652 84.4854 313.038 83.5205 311.416 82.9503C309.442 82.2486 308.302 82.3363 306.152 83.3012C304.003 84.2661 303.521 84.0907 302.381 81.8977C302.03 81.1959 300.977 79.7924 300.056 78.7837L298.345 76.9415L299.223 75.0556C300.802 71.503 300.626 71.2837 295.802 70.538C292.161 69.924 291.24 69.5731 289.135 68.0819C284.749 65.0117 283.389 64.5293 281.372 65.3626ZM277.337 108.871C277.731 109.178 278.477 110.45 279.003 111.678C279.53 112.95 280.407 114.178 280.977 114.485C281.854 114.968 282.205 114.924 283.302 114.091C284.047 113.608 285.1 113.17 285.714 113.17C286.635 113.17 286.854 113.433 286.986 114.354C287.074 115.319 287.6 115.845 289.31 116.766C291.898 118.17 292.6 119.047 292.6 120.845C292.6 122.95 290.495 125.67 285.714 129.88C282.556 132.599 280.451 134.968 277.819 138.652C275.889 141.415 273.565 144.442 272.688 145.406L271.109 147.161L270.012 145.845C268.389 143.915 268.258 142.863 269.31 139.354C270.144 136.503 271.153 129.573 271.767 121.942C272.074 118.433 273.258 110.275 273.565 109.442C273.784 108.915 274.53 108.608 276.196 108.389C276.416 108.389 276.942 108.608 277.337 108.871ZM246.547 125.099C247.381 125.363 249.398 126.328 250.977 127.292C254.31 129.222 258.433 130.275 263.126 130.275C267.337 130.275 267.337 131.108 263.082 132.161C257.995 133.389 254.617 135.275 251.372 138.652C248.126 142.029 247.03 142.599 244.924 141.985C243.258 141.459 239.354 137.775 238.345 135.757C237.688 134.573 237.424 129.836 237.863 128.082C238.872 124.266 241.196 123.477 246.547 125.099ZM288.609 143.038C290.231 143.608 290.714 144.354 292.161 148.652C293.389 152.336 294.486 153.433 297.337 153.828C299.442 154.091 301.547 152.906 301.986 151.108C303.17 146.503 307.293 157.38 306.46 162.863C305.67 168.17 300.802 169.792 294.486 166.898C289.354 164.573 287.468 162.117 286.24 156.152C285.363 151.854 284.486 149.047 283.565 147.424C282.6 145.626 282.556 145.45 283.214 144.705C283.828 144.003 286.328 142.599 286.942 142.556C287.074 142.556 287.819 142.775 288.609 143.038Z" fill="#FBCF7E" fill-opacity="1"/>
<path d="M145.933 155.143C149.486 164.661 155.407 177.292 163.126 191.942C166.021 197.468 170.889 207.205 173.96 213.608C183.389 233.345 189.486 245.099 193.696 251.547C194.486 252.731 196.591 256.021 198.389 258.784C209.223 275.494 214.179 284.266 217.731 293.257C220.1 299.135 220.67 302.161 221.547 313.389C222.205 322.205 222.381 323.301 224.398 332.687C226.898 344.442 227.337 348.389 227.03 356.371C226.723 363.784 227.03 365.538 229.442 369.31C230.626 371.196 231.065 371.503 232.249 371.503C233.302 371.503 233.828 371.152 234.574 370.056C236.24 367.643 236.591 364.749 236.021 358.257C235.626 354.222 235.582 347.906 235.758 337.95C236.24 315.757 235.231 310.099 227.775 292.117C217.117 266.371 201.547 237.95 179.267 203.521C173.653 194.836 145.188 152.205 145.012 152.205C144.924 152.205 145.319 153.521 145.933 155.143Z" fill="#FBCF7E" fill-opacity="1"/>
<path d="M264.881 152.643C264.486 152.906 263.609 154.529 262.951 156.284C262.293 157.994 261.065 160.626 260.275 162.073C255.933 169.792 254.091 175.845 253.17 185.757C252.074 196.985 251.372 202.292 248.74 219.091C247.995 223.652 246.942 230.977 246.328 235.319C245.758 239.661 245.056 244.573 244.837 246.284C244.617 247.95 244.091 252.687 243.696 256.81C243.302 260.889 242.907 264.924 242.819 265.757C240.275 286.722 239.968 336.854 242.161 362.292C242.775 369.091 244.354 384.661 244.574 386.196C244.705 386.898 244.881 388.213 245.012 389.047C248.126 415.056 255.231 447.029 262.556 468.433C264.135 472.95 265.495 475.012 266.986 475.012C267.951 475.012 269.354 473.389 269.354 472.205C269.354 471.635 268.17 467.643 266.767 463.345C263.302 452.906 259.091 437.819 257.293 429.398C254.135 414.792 253.039 409.047 251.109 397.38C250.188 391.591 249.574 387.029 247.688 371.942C246.767 364.792 245.495 348.477 244.881 336.635C244.486 328.74 244.486 296.064 244.881 287.512C245.67 270.494 247.731 248.871 249.837 235.757C251.723 224.135 252.337 220.319 253.302 215.012C256.81 195.713 260.451 181.284 266.065 164.661C267.644 160.056 268.916 155.67 268.916 154.968C268.916 152.775 266.767 151.547 264.881 152.643Z" fill="#FBCF7E" fill-opacity="1"/>
<path d="M294.354 243.082C294.003 243.871 291.898 248.784 289.617 253.959C267.688 304.003 258.696 328.915 252.863 355.494C249.793 369.485 249.837 375.231 253.126 391.24C254.091 395.933 255.188 402.336 255.582 405.494C256.372 412.38 257.512 414.924 259.749 414.924C262.644 414.924 263.609 409.047 261.81 402.424C260.977 399.266 260.845 397.687 260.802 385.977C260.758 378.871 260.495 371.152 260.231 368.871C259.924 366.591 259.705 363.345 259.705 361.722C259.705 355.099 262.819 344.573 269.442 328.828C275.188 315.099 275.67 313.696 281.679 292.205C283.609 285.363 286.24 276.371 287.556 272.205C291.196 260.538 295.714 242.468 295.1 241.854C295.012 241.722 294.661 242.292 294.354 243.082Z" fill="#FBCF7E" fill-opacity="1"/>
</g>
</svg>
